<?xml version="1.0" encoding="UTF-8" standalone="no"?>
<!DOCTYPE svg PUBLIC "-//W3C//DTD SVG 1.0//EN" "http://www.w3.org/TR/2001/PR-SVG-20010719/DTD/svg10.dtd">
<svg width="33cm" height="23cm" viewBox="74 35 659 443" xmlns="http://www.w3.org/2000/svg" xmlns:xlink="http://www.w3.org/1999/xlink">
  <g>
    <path style="fill: #ffe9aa" d="M 685.146 241.087 L 685.1,240.042 L 684.939,238.998 L 684.639,237.972 L 684.224,236.946 L 683.671,235.902 L 683.048,234.894 L 682.264,233.923 L 681.387,232.934 L 680.442,231.981 L 679.335,231.047 L 678.159,230.149 L 676.867,229.27 L 675.46,228.427 L 673.985,227.621 L 672.416,226.833 L 670.733,226.082 L 669.003,225.368 L 667.204,224.708 L 665.313,224.104 L 663.353,223.518 L 661.324,222.968 L 659.225,222.492 L 657.126,222.052 L 654.935,221.667 L 652.698,221.337 L 650.461,221.026 L 648.178,220.788 L 645.872,220.605 L 643.543,220.476 L 641.19,220.403 L 638.838,220.366 L 638.838,220.366 L 636.509,220.403 L 634.133,220.476 L 631.827,220.605 L 629.521,220.788 L 627.215,221.026 L 624.978,221.337 L 622.741,221.667 L 620.573,222.052 L 618.428,222.492 L 616.376,222.968 L 614.346,223.518 L 612.409,224.104 L 610.495,224.708 L 608.696,225.368 L 606.943,226.082 L 605.26,226.833 L 603.692,227.621 L 602.216,228.427 L 600.809,229.27 L 599.518,230.149 L 598.341,231.047 L 597.257,231.981 L 596.266,232.934 L 595.436,233.923 L 594.651,234.894 L 594.006,235.902 L 593.452,236.946 L 593.083,237.972 L 592.783,238.998 L 592.576,240.042 L 592.553,241.087 L 592.553,241.087 L 592.576,242.131 L 592.783,243.212 L 593.083,244.238 L 593.452,245.282 L 594.006,246.308 L 594.651,247.316 L 595.436,248.287 L 596.266,249.276 L 597.257,250.229 L 598.341,251.145 L 599.518,252.061 L 600.809,252.94 L 602.216,253.764 L 603.692,254.589 L 605.26,255.377 L 606.943,256.128 L 608.696,256.824 L 610.495,257.465 L 612.409,258.125 L 614.346,258.693 L 616.376,259.224 L 618.428,259.718 L 620.573,260.158 L 622.741,260.525 L 624.978,260.873 L 627.215,261.166 L 629.521,261.404 L 631.827,261.569 L 634.133,261.734 L 636.509,261.789 L 638.838,261.807 L 638.838,261.807 L 641.19,261.789 L 643.543,261.734 L 645.872,261.569 L 648.178,261.404 L 650.461,261.166 L 652.698,260.873 L 654.935,260.525 L 657.126,260.158 L 659.225,259.718 L 661.324,259.224 L 663.353,258.693 L 665.313,258.125 L 667.204,257.465 L 669.003,256.824 L 670.733,256.128 L 672.416,255.377 L 673.985,254.589 L 675.46,253.764 L 676.867,252.94 L 678.159,252.061 L 679.335,251.145 L 680.442,250.229 L 681.387,249.276 L 682.264,248.287 L 683.048,247.316 L 683.671,246.308 L 684.224,245.282 L 684.639,244.238 L 684.939,243.212 L 685.1,242.131 L 685.146,241.087z"/>
    <path style="fill: #ffe9aa" d="M 612.571 251.969 L 612.524,250.925 L 612.363,249.88 L 612.179,248.855 L 611.856,247.81 L 611.441,246.784 L 610.933,245.777 L 610.334,244.787 L 609.688,243.816 L 608.95,242.864 L 608.12,241.929 L 607.22,241.032 L 606.229,240.152 L 605.122,239.31 L 603.992,238.467 L 602.792,237.716 L 601.501,236.965 L 600.209,236.25 L 598.78,235.591 L 597.35,234.968 L 595.828,234.4 L 594.306,233.85 L 592.714,233.374 L 591.054,232.934 L 589.393,232.549 L 587.687,232.22 L 585.957,231.908 L 584.204,231.67 L 582.429,231.505 L 580.676,231.359 L 578.877,231.285 L 577.078,231.249 L 577.078,231.249 L 575.279,231.285 L 573.481,231.359 L 571.682,231.505 L 569.929,231.67 L 568.153,231.908 L 566.424,232.22 L 564.74,232.549 L 563.08,232.934 L 561.442,233.374 L 559.851,233.85 L 558.283,234.4 L 556.807,234.968 L 555.331,235.591 L 553.947,236.25 L 552.633,236.965 L 551.341,237.716 L 550.142,238.467 L 548.989,239.31 L 547.905,240.152 L 546.936,241.032 L 546.014,241.929 L 545.207,242.864 L 544.446,243.816 L 543.777,244.787 L 543.2,245.777 L 542.693,246.784 L 542.278,247.81 L 541.978,248.855 L 541.747,249.88 L 541.609,250.925 L 541.563,251.969 L 541.563,251.969 L 541.609,253.032 L 541.747,254.094 L 541.978,255.12 L 542.278,256.146 L 542.693,257.19 L 543.2,258.161 L 543.777,259.169 L 544.446,260.158 L 545.207,261.111 L 546.014,262.027 L 546.936,262.943 L 547.905,263.822 L 548.989,264.647 L 550.142,265.471 L 551.341,266.259 L 552.633,266.973 L 553.947,267.706 L 555.331,268.347 L 556.807,269.007 L 558.283,269.575 L 559.851,270.106 L 561.442,270.601 L 563.08,271.022 L 564.74,271.407 L 566.424,271.755 L 568.153,272.048 L 569.929,272.286 L 571.682,272.451 L 573.481,272.579 L 575.279,272.671 L 577.078,272.689 L 577.078,272.689 L 578.877,272.671 L 580.676,272.579 L 582.429,272.451 L 584.204,272.286 L 585.957,272.048 L 587.687,271.755 L 589.393,271.407 L 591.054,271.022 L 592.714,270.601 L 594.306,270.106 L 595.828,269.575 L 597.35,269.007 L 598.78,268.347 L 600.209,267.706 L 601.501,266.973 L 602.792,266.259 L 603.992,265.471 L 605.122,264.647 L 606.229,263.822 L 607.22,262.943 L 608.12,262.027 L 608.95,261.111 L 609.688,260.158 L 610.334,259.169 L 610.933,258.161 L 611.441,257.19 L 611.856,256.146 L 612.179,255.12 L 612.363,254.094 L 612.524,253.032 L 612.571,251.969z"/>
    <path style="fill: #ffe9aa" d="M 567.807 273.111 L 567.784,272.268 L 567.715,271.407 L 567.554,270.564 L 567.346,269.703 L 567.046,268.879 L 566.7,268.054 L 566.331,267.248 L 565.893,266.46 L 565.386,265.673 L 564.809,264.885 L 564.187,264.189 L 563.518,263.456 L 562.803,262.741 L 562.042,262.1 L 561.212,261.459 L 560.358,260.873 L 559.482,260.286 L 558.56,259.737 L 557.568,259.242 L 556.553,258.766 L 555.515,258.326 L 554.431,257.923 L 553.348,257.557 L 552.218,257.245 L 551.064,256.97 L 549.911,256.751 L 548.735,256.531 L 547.513,256.403 L 546.314,256.293 L 545.138,256.238 L 543.915,256.201 L 543.915,256.201 L 542.693,256.238 L 541.471,256.293 L 540.271,256.403 L 539.095,256.531 L 537.896,256.751 L 536.72,256.97 L 535.59,257.245 L 534.483,257.557 L 533.353,257.923 L 532.269,258.326 L 531.231,258.766 L 530.216,259.242 L 529.248,259.737 L 528.302,260.286 L 527.426,260.873 L 526.573,261.459 L 525.765,262.1 L 524.981,262.741 L 524.266,263.456 L 523.598,264.189 L 522.975,264.885 L 522.445,265.673 L 521.937,266.46 L 521.499,267.248 L 521.084,268.054 L 520.738,268.879 L 520.484,269.703 L 520.277,270.564 L 520.092,271.407 L 520,272.268 L 520,273.111 L 520,273.111 L 520,273.953 L 520.092,274.833 L 520.277,275.657 L 520.484,276.518 L 520.738,277.361 L 521.084,278.167 L 521.499,278.973 L 521.937,279.761 L 522.445,280.567 L 522.975,281.336 L 523.598,282.051 L 524.266,282.765 L 524.981,283.462 L 525.765,284.121 L 526.573,284.762 L 527.426,285.367 L 528.302,285.953 L 529.248,286.484 L 530.216,286.979 L 531.231,287.455 L 532.269,287.895 L 533.353,288.298 L 534.483,288.665 L 535.59,288.958 L 536.72,289.251 L 537.896,289.489 L 539.095,289.691 L 540.271,289.837 L 541.471,289.929 L 542.693,289.984 L 543.915,290.02 L 543.915,290.02 L 545.138,289.984 L 546.314,289.929 L 547.513,289.837 L 548.735,289.691 L 549.911,289.489 L 551.064,289.251 L 552.218,288.958 L 553.348,288.665 L 554.431,288.298 L 555.515,287.895 L 556.553,287.455 L 557.568,286.979 L 558.56,286.484 L 559.482,285.953 L 560.358,285.367 L 561.212,284.762 L 562.042,284.121 L 562.803,283.462 L 563.518,282.765 L 564.187,282.051 L 564.809,281.336 L 565.386,280.567 L 565.893,279.761 L 566.331,278.973 L 566.7,278.167 L 567.046,277.361 L 567.346,276.518 L 567.554,275.657 L 567.715,274.833 L 567.784,273.953 L 567.807,273.111z"/>
    <path style="fill: #ffe9aa" d="M 606.413 289.397 L 606.39,288.481 L 606.229,287.547 L 605.975,286.631 L 605.675,285.715 L 605.26,284.817 L 604.776,283.92 L 604.153,283.059 L 603.507,282.179 L 602.723,281.355 L 601.893,280.549 L 600.947,279.743 L 599.956,278.973 L 598.895,278.185 L 597.742,277.471 L 596.519,276.793 L 595.228,276.134 L 593.867,275.529 L 592.438,274.943 L 590.985,274.393 L 589.463,273.88 L 587.871,273.422 L 586.257,272.982 L 584.596,272.579 L 582.913,272.231 L 581.183,271.956 L 579.408,271.7 L 577.655,271.48 L 575.856,271.297 L 574.057,271.187 L 572.235,271.132 L 570.39,271.095 L 570.39,271.095 L 568.568,271.132 L 566.77,271.187 L 564.925,271.297 L 563.149,271.48 L 561.35,271.7 L 559.62,271.956 L 557.891,272.231 L 556.184,272.579 L 554.524,272.982 L 552.932,273.422 L 551.341,273.88 L 549.819,274.393 L 548.343,274.943 L 546.936,275.529 L 545.576,276.134 L 544.284,276.793 L 543.062,277.471 L 541.909,278.185 L 540.825,278.973 L 539.833,279.743 L 538.888,280.549 L 538.034,281.355 L 537.296,282.179 L 536.628,283.059 L 536.005,283.92 L 535.498,284.817 L 535.129,285.715 L 534.783,286.631 L 534.552,287.547 L 534.414,288.481 L 534.368,289.397 L 534.368,289.397 L 534.414,290.332 L 534.552,291.248 L 534.783,292.2 L 535.129,293.116 L 535.498,293.996 L 536.005,294.875 L 536.628,295.773 L 537.296,296.634 L 538.034,297.477 L 538.888,298.301 L 539.833,299.107 L 540.825,299.877 L 541.909,300.646 L 543.062,301.379 L 544.284,302.038 L 545.576,302.68 L 546.936,303.321 L 548.343,303.907 L 549.819,304.457 L 551.341,304.97 L 552.932,305.428 L 554.524,305.867 L 556.184,306.234 L 557.891,306.582 L 559.62,306.893 L 561.35,307.132 L 563.149,307.351 L 564.925,307.535 L 566.77,307.626 L 568.568,307.718 L 570.39,307.718 L 570.39,307.718 L 572.235,307.718 L 574.057,307.626 L 575.856,307.535 L 577.655,307.351 L 579.408,307.132 L 581.183,306.893 L 582.913,306.582 L 584.596,306.234 L 586.257,305.867 L 587.871,305.428 L 589.463,304.97 L 590.985,304.457 L 592.438,303.907 L 593.867,303.321 L 595.228,302.68 L 596.519,302.038 L 597.742,301.361 L 598.895,300.609 L 599.956,299.877 L 600.947,299.107 L 601.893,298.301 L 602.723,297.477 L 603.507,296.634 L 604.153,295.773 L 604.776,294.875 L 605.26,293.996 L 605.675,293.116 L 605.975,292.2 L 606.229,291.248 L 606.39,290.332 L 606.413,289.397z"/>
    <path style="fill: #ffe9aa" d="M 692.872 298.869 L 692.78,297.77 L 692.595,296.671 L 692.227,295.571 L 691.742,294.509 L 691.143,293.41 L 690.405,292.365 L 689.528,291.321 L 688.514,290.295 L 687.36,289.288 L 686.115,288.335 L 684.708,287.382 L 683.232,286.43 L 681.618,285.568 L 679.911,284.707 L 678.043,283.883 L 676.152,283.095 L 674.123,282.381 L 672.001,281.685 L 669.833,281.025 L 667.527,280.42 L 665.198,279.871 L 662.776,279.34 L 660.309,278.882 L 657.749,278.497 L 655.189,278.13 L 652.56,277.819 L 649.931,277.581 L 647.21,277.379 L 644.557,277.251 L 641.813,277.141 L 639.092,277.141 L 639.092,277.141 L 636.371,277.141 L 633.649,277.251 L 630.951,277.379 L 628.276,277.581 L 625.601,277.819 L 622.995,278.13 L 620.412,278.497 L 617.898,278.882 L 615.384,279.34 L 613.009,279.871 L 610.633,280.42 L 608.373,281.025 L 606.182,281.685 L 604.084,282.381 L 602.054,283.095 L 600.117,283.883 L 598.295,284.707 L 596.589,285.568 L 594.951,286.43 L 593.452,287.382 L 592.069,288.335 L 590.846,289.288 L 589.693,290.295 L 588.678,291.321 L 587.802,292.365 L 587.041,293.41 L 586.441,294.509 L 585.934,295.571 L 585.588,296.671 L 585.381,297.77 L 585.311,298.869 L 585.311,298.869 L 585.381,299.95 L 585.588,301.067 L 585.934,302.167 L 586.441,303.248 L 587.041,304.328 L 587.802,305.391 L 588.678,306.417 L 589.693,307.443 L 590.846,308.451 L 592.069,309.422 L 593.452,310.356 L 594.951,311.272 L 596.589,312.17 L 598.295,313.031 L 600.117,313.855 L 602.054,314.606 L 604.084,315.376 L 606.182,316.072 L 608.373,316.713 L 610.633,317.318 L 613.009,317.886 L 615.384,318.362 L 617.898,318.838 L 620.412,319.26 L 622.995,319.626 L 625.601,319.919 L 628.276,320.176 L 630.951,320.359 L 633.649,320.505 L 636.371,320.597 L 639.092,320.615 L 639.092,320.615 L 641.813,320.597 L 644.557,320.505 L 647.21,320.359 L 649.931,320.176 L 652.56,319.919 L 655.189,319.626 L 657.749,319.26 L 660.309,318.838 L 662.776,318.362 L 665.198,317.886 L 667.527,317.318 L 669.833,316.713 L 672.001,316.072 L 674.123,315.376 L 676.152,314.606 L 678.043,313.855 L 679.911,313.031 L 681.618,312.17 L 683.232,311.272 L 684.708,310.356 L 686.115,309.422 L 687.36,308.451 L 688.514,307.443 L 689.528,306.417 L 690.405,305.391 L 691.143,304.328 L 691.742,303.248 L 692.227,302.167 L 692.595,301.067 L 692.78,299.95 L 692.872,298.869z"/>
    <path style="fill: #ffe9aa" d="M 722.714 248.745 L 722.691,247.939 L 722.553,247.114 L 722.299,246.29 L 722.023,245.484 L 721.607,244.677 L 721.146,243.89 L 720.57,243.102 L 719.901,242.314 L 719.186,241.581 L 718.402,240.83 L 717.502,240.134 L 716.534,239.438 L 715.519,238.778 L 714.389,238.119 L 713.236,237.514 L 711.968,236.946 L 710.676,236.36 L 709.338,235.865 L 707.909,235.352 L 706.456,234.894 L 704.98,234.491 L 703.412,234.107 L 701.82,233.759 L 700.206,233.465 L 698.545,233.172 L 696.885,232.952 L 695.178,232.788 L 693.472,232.623 L 691.719,232.513 L 689.989,232.476 L 688.237,232.458 L 688.237,232.458 L 686.461,232.476 L 684.731,232.513 L 682.979,232.623 L 681.272,232.788 L 679.589,232.952 L 677.905,233.172 L 676.268,233.465 L 674.63,233.759 L 673.039,234.107 L 671.471,234.491 L 669.972,234.894 L 668.542,235.352 L 667.112,235.865 L 665.774,236.36 L 664.483,236.946 L 663.238,237.514 L 662.061,238.119 L 660.931,238.778 L 659.917,239.438 L 658.971,240.134 L 658.049,240.83 L 657.265,241.581 L 656.55,242.314 L 655.881,243.102 L 655.304,243.89 L 654.843,244.677 L 654.451,245.484 L 654.128,246.29 L 653.921,247.114 L 653.805,247.939 L 653.736,248.745 L 653.736,248.745 L 653.805,249.569 L 653.921,250.375 L 654.128,251.218 L 654.451,252.024 L 654.843,252.848 L 655.304,253.636 L 655.881,254.424 L 656.55,255.157 L 657.265,255.944 L 658.049,256.659 L 658.971,257.355 L 659.917,258.07 L 660.931,258.711 L 662.061,259.37 L 663.238,259.975 L 664.483,260.561 L 665.774,261.111 L 667.112,261.642 L 668.542,262.137 L 669.972,262.595 L 671.471,263.016 L 673.039,263.401 L 674.63,263.731 L 676.268,264.042 L 677.905,264.317 L 679.589,264.537 L 681.272,264.72 L 682.979,264.885 L 684.731,264.976 L 686.461,265.013 L 688.237,265.068 L 688.237,265.068 L 689.989,265.013 L 691.719,264.976 L 693.472,264.885 L 695.178,264.72 L 696.885,264.537 L 698.545,264.317 L 700.206,264.042 L 701.82,263.731 L 703.412,263.401 L 704.98,263.016 L 706.456,262.595 L 707.909,262.137 L 709.338,261.642 L 710.676,261.111 L 711.968,260.561 L 713.236,259.975 L 714.389,259.37 L 715.519,258.711 L 716.534,258.07 L 717.502,257.355 L 718.402,256.659 L 719.186,255.944 L 719.901,255.157 L 720.57,254.424 L 721.146,253.636 L 721.607,252.848 L 722.023,252.024 L 722.299,251.218 L 722.553,250.375 L 722.691,249.569 L 722.714,248.745z"/>
    <path style="fill: #ffe9aa" d="M 732.493 269.685 L 732.423,268.879 L 732.331,268.054 L 732.101,267.23 L 731.801,266.405 L 731.386,265.581 L 730.924,264.793 L 730.371,264.024 L 729.702,263.273 L 728.987,262.503 L 728.203,261.789 L 727.304,261.074 L 726.335,260.396 L 725.343,259.737 L 724.213,259.059 L 723.06,258.473 L 721.861,257.886 L 720.57,257.319 L 719.186,256.824 L 717.825,256.311 L 716.372,255.853 L 714.896,255.45 L 713.351,255.047 L 711.783,254.717 L 710.169,254.424 L 708.508,254.131 L 706.848,253.911 L 705.164,253.728 L 703.435,253.563 L 701.728,253.49 L 699.998,253.435 L 698.269,253.398 L 698.269,253.398 L 696.516,253.435 L 694.809,253.49 L 693.08,253.563 L 691.396,253.728 L 689.713,253.911 L 688.029,254.131 L 686.392,254.424 L 684.801,254.717 L 683.209,255.047 L 681.664,255.45 L 680.188,255.853 L 678.735,256.311 L 677.328,256.824 L 676.014,257.319 L 674.722,257.886 L 673.454,258.473 L 672.301,259.059 L 671.217,259.737 L 670.225,260.396 L 669.257,261.074 L 668.38,261.789 L 667.55,262.503 L 666.835,263.273 L 666.213,264.024 L 665.636,264.793 L 665.129,265.581 L 664.76,266.405 L 664.46,267.23 L 664.229,268.054 L 664.091,268.879 L 664.068,269.685 L 664.068,269.685 L 664.091,270.491 L 664.229,271.315 L 664.46,272.158 L 664.76,272.964 L 665.129,273.788 L 665.636,274.576 L 666.213,275.364 L 666.835,276.097 L 667.55,276.866 L 668.38,277.599 L 669.257,278.295 L 670.225,278.973 L 671.217,279.651 L 672.301,280.311 L 673.454,280.915 L 674.722,281.483 L 676.014,282.051 L 677.328,282.546 L 678.735,283.059 L 680.188,283.517 L 681.664,283.92 L 683.209,284.323 L 684.801,284.671 L 686.392,284.946 L 688.029,285.239 L 689.713,285.459 L 691.396,285.642 L 693.08,285.807 L 694.809,285.898 L 696.516,285.953 L 698.269,285.972 L 698.269,285.972 L 699.998,285.953 L 701.728,285.898 L 703.435,285.807 L 705.164,285.642 L 706.848,285.459 L 708.508,285.239 L 710.169,284.946 L 711.783,284.671 L 713.351,284.323 L 714.896,283.92 L 716.372,283.517 L 717.825,283.059 L 719.186,282.546 L 720.57,282.051 L 721.861,281.483 L 723.06,280.915 L 724.213,280.311 L 725.343,279.651 L 726.335,278.973 L 727.304,278.295 L 728.203,277.599 L 728.987,276.866 L 729.702,276.097 L 730.371,275.364 L 730.924,274.576 L 731.386,273.788 L 731.801,272.964 L 732.101,272.158 L 732.331,271.315 L 732.423,270.491 L 732.493,269.685z"/>
    <path style="fill: #ffe9aa" d="M 725.805 286.997 L 725.759,285.642 L 725.62,284.304 L 725.436,282.967 L 725.136,281.611 L 724.744,280.292 L 724.26,278.973 L 723.706,277.709 L 723.037,276.445 L 722.322,275.217 L 721.561,274.027 L 720.685,272.854 L 719.716,271.718 L 718.702,270.619 L 717.595,269.575 L 716.442,268.549 L 715.242,267.615 L 713.951,266.699 L 712.636,265.856 L 711.23,265.031 L 709.8,264.299 L 708.324,263.621 L 706.825,262.998 L 705.256,262.43 L 703.665,261.899 L 702.005,261.459 L 700.367,261.111 L 698.661,260.781 L 696.977,260.543 L 695.294,260.396 L 693.587,260.286 L 691.858,260.25 L 691.858,260.25 L 690.128,260.286 L 688.421,260.396 L 686.692,260.543 L 685.008,260.781 L 683.348,261.111 L 681.664,261.459 L 680.05,261.899 L 678.459,262.43 L 676.89,262.998 L 675.345,263.621 L 673.869,264.299 L 672.439,265.031 L 671.079,265.856 L 669.718,266.699 L 668.45,267.615 L 667.227,268.549 L 666.074,269.575 L 664.99,270.619 L 663.953,271.718 L 663.03,272.854 L 662.154,274.027 L 661.347,275.217 L 660.632,276.445 L 660.009,277.709 L 659.456,278.973 L 658.971,280.292 L 658.579,281.611 L 658.279,282.967 L 658.049,284.304 L 657.91,285.642 L 657.864,286.997 L 657.864,286.997 L 657.91,288.353 L 658.049,289.727 L 658.279,291.065 L 658.579,292.384 L 658.971,293.721 L 659.456,295.003 L 660.009,296.286 L 660.632,297.55 L 661.347,298.777 L 662.154,300.005 L 663.03,301.177 L 663.953,302.295 L 664.99,303.376 L 666.074,304.42 L 667.227,305.428 L 668.45,306.417 L 669.718,307.333 L 671.079,308.176 L 672.439,308.964 L 673.869,309.715 L 675.345,310.411 L 676.89,311.034 L 678.459,311.602 L 680.05,312.115 L 681.664,312.536 L 683.348,312.921 L 685.008,313.214 L 686.692,313.452 L 688.421,313.635 L 690.128,313.745 L 691.858,313.782 L 691.858,313.782 L 693.587,313.745 L 695.294,313.635 L 696.977,313.452 L 698.661,313.214 L 700.367,312.921 L 702.005,312.536 L 703.665,312.115 L 705.256,311.602 L 706.825,311.034 L 708.324,310.411 L 709.8,309.715 L 711.23,308.964 L 712.636,308.176 L 713.951,307.333 L 715.242,306.417 L 716.442,305.428 L 717.595,304.42 L 718.702,303.376 L 719.716,301.361 L 720.685,301.177 L 721.561,300.005 L 722.322,298.777 L 723.037,297.55 L 723.706,296.286 L 724.26,295.003 L 724.744,293.721 L 725.136,292.384 L 725.436,291.065 L 725.62,289.727 L 725.759,288.353 L 725.805,286.997z"/>
    <path style="fill: #ffe9aa" d="M 696.47 270.894 L 696.378,269.538 L 696.101,268.182 L 695.663,266.827 L 695.063,265.489 L 694.279,264.189 L 693.31,262.888 L 692.18,261.587 L 690.866,260.323 L 689.436,259.077 L 687.822,257.905 L 686.023,256.732 L 684.109,255.596 L 682.033,254.497 L 679.819,253.435 L 677.467,252.427 L 675.022,251.474 L 672.416,250.558 L 669.695,249.734 L 666.905,248.909 L 663.976,248.158 L 660.955,247.481 L 657.864,246.858 L 654.705,246.29 L 651.476,245.777 L 648.155,245.337 L 644.788,244.952 L 641.398,244.677 L 637.962,244.403 L 634.502,244.256 L 631.02,244.146 L 627.492,244.128 L 627.492,244.128 L 624.009,244.146 L 620.527,244.256 L 617.068,244.403 L 613.608,244.677 L 610.218,244.952 L 606.851,245.337 L 603.553,245.777 L 600.325,246.29 L 597.119,246.858 L 594.075,247.481 L 591.054,248.158 L 588.102,248.909 L 585.288,249.734 L 582.613,250.558 L 579.984,251.474 L 577.516,252.427 L 575.21,253.435 L 572.973,254.497 L 570.898,255.596 L 569.007,256.732 L 567.208,257.905 L 565.617,259.077 L 564.164,260.323 L 562.826,261.587 L 561.719,262.888 L 560.773,264.189 L 559.943,265.489 L 559.344,266.827 L 558.905,268.182 L 558.629,269.538 L 558.56,270.894 L 558.56,270.894 L 558.629,272.231 L 558.905,273.587 L 559.344,274.943 L 559.943,276.28 L 560.773,277.599 L 561.719,278.882 L 562.826,280.182 L 564.164,281.446 L 565.617,282.692 L 567.208,283.883 L 569.007,285.037 L 570.898,286.173 L 572.973,287.272 L 575.21,288.335 L 577.516,289.342 L 579.984,290.295 L 582.613,291.211 L 585.288,292.036 L 588.102,292.878 L 591.054,293.611 L 594.075,294.289 L 597.119,294.912 L 600.325,295.48 L 603.553,295.993 L 606.851,296.432 L 610.218,296.817 L 613.608,297.092 L 617.068,297.348 L 620.527,297.513 L 624.009,297.623 L 627.492,297.642 L 627.492,297.642 L 631.02,297.623 L 634.502,297.513 L 637.962,297.348 L 641.398,297.092 L 644.788,296.817 L 648.155,296.432 L 651.476,295.993 L 654.705,295.48 L 657.864,294.912 L 660.955,294.289 L 663.976,293.611 L 666.905,292.878 L 669.695,292.036 L 672.416,291.211 L 675.022,290.295 L 677.467,289.342 L 679.819,288.335 L 682.033,287.272 L 684.109,286.173 L 686.023,285.037 L 687.822,283.883 L 689.436,282.692 L 690.866,281.446 L 692.18,280.182 L 693.31,278.882 L 694.279,277.599 L 695.063,276.28 L 695.663,274.943 L 696.101,273.587 L 696.378,272.231 L 696.47,270.894z"/>
    <path style="fill: #ffe9aa" d="M 639.369 240.922 L 685.008,236.287 L 684.432,235.261 L 683.717,234.272 L 682.933,233.264 L 681.987,232.275 L 680.972,231.322 L 679.819,230.406 L 678.62,229.49 L 677.236,228.647 L 675.829,227.786 L 674.307,226.98 L 672.67,226.211 L 670.963,225.496 L 669.165,224.8 L 667.297,224.122 L 665.359,223.518 L 663.353,222.968 L 661.324,222.418 L 659.179,221.96 L 657.011,221.557 L 654.82,221.154 L 652.537,220.824 L 650.254,220.568 L 647.948,220.33 L 645.618,220.183 L 643.266,220.073 L 640.891,220 L 638.538,220 L 636.163,220.018 L 633.788,220.128 L 631.481,220.293 L 629.152,220.476 L 626.846,220.769 L 624.563,221.044 L 622.326,221.429 L 620.158,221.832 L 618.036,222.29 L 615.938,222.803 L 613.908,223.334 L 611.994,223.957 L 610.103,224.58 L 608.281,225.258 L 606.551,225.972 L 604.914,226.742 L 603.369,227.548 L 601.893,228.354 L 600.509,229.252 L 599.218,230.131 L 598.042,231.065 L 597.027,232 L 596.035,232.952 L 595.182,233.96 L 594.467,234.968 L 593.867,235.994 L 593.36,237.02 L 639.369,240.922z"/>
    <path style="fill: none; fill-opacity:0; stroke-width: 0.02; stroke: #805d00" d="M 685.008 236.25 L 684.409,235.224 L 683.717,234.217 L 682.909,233.227 L 681.987,232.256 L 680.926,231.304 L 679.796,230.388 L 678.574,229.49 L 677.19,228.592 L 675.76,227.786 L 674.284,226.98 L 672.624,226.174 L 670.963,225.459 L 669.142,224.763 L 667.273,224.122 L 665.359,223.499 L 663.353,222.95 L 661.3,222.418 L 659.156,221.942 L 656.988,221.502 L 654.82,221.136 L 652.537,220.824 L 650.231,220.568 L 647.925,220.33 L 645.595,220.183 L 643.266,220.073 L 640.868,220 L 638.515,220 L 636.163,220.018 L 633.811,220.128 L 631.458,220.293 L 629.152,220.476 L 626.846,220.751 L 624.586,221.044 L 622.372,221.429 L 620.158,221.832 L 618.059,222.29 L 615.961,222.803 L 613.954,223.316 L 611.994,223.921 L 610.126,224.58 L 608.304,225.258 L 606.574,225.954 L 604.937,226.742 L 603.369,227.53 L 601.893,228.354 L 600.509,229.233 L 599.264,230.095 L 598.065,231.011 L 597.027,231.981 L 596.058,232.934 L 595.228,233.923 L 594.467,234.913 L 593.867,235.939 L 593.383,236.965"/>
    <path style="fill: #ffe9aa" d="M 577.309 251.786 L 600.325,235.719 L 598.895,235.096 L 597.396,234.455 L 595.874,233.868 L 594.306,233.374 L 592.714,232.879 L 591.054,232.458 L 589.347,232.055 L 587.664,231.743 L 585.888,231.45 L 584.135,231.212 L 582.336,231.065 L 580.538,230.937 L 578.739,230.864 L 576.94,230.864 L 575.118,230.864 L 573.319,230.992 L 571.52,231.102 L 569.745,231.322 L 567.992,231.56 L 566.262,231.89 L 564.533,232.238 L 562.872,232.623 L 561.212,233.081 L 559.62,233.594 L 558.075,234.143 L 556.599,234.73 L 555.123,235.352 L 553.74,236.03 L 552.425,236.745 L 551.134,237.514 L 549.934,238.32 L 548.827,239.126 L 547.767,240.006 L 546.798,240.904 L 545.875,241.82 L 545.068,242.754 L 544.307,243.707 L 543.662,244.714 L 543.085,245.722 L 542.624,246.748 L 542.255,247.774 L 541.932,248.818 L 541.701,249.88 L 541.609,250.925 L 541.563,251.969 L 541.632,253.05 L 541.77,254.112 L 542.047,255.138 L 577.309,251.786z"/>
    <path style="fill: none; fill-opacity:0; stroke-width: 0.02; stroke: #805d00" d="M 600.209 235.682 L 598.78,235.023 L 597.327,234.418 L 595.805,233.85 L 594.213,233.337 L 592.576,232.843 L 590.939,232.44 L 589.255,232.036 L 587.525,231.707 L 585.796,231.45 L 583.997,231.212 L 582.221,231.047 L 580.445,230.937 L 578.646,230.864 L 576.802,230.864 L 575.049,230.882 L 573.25,230.992 L 571.405,231.12 L 569.652,231.322 L 567.923,231.578 L 566.147,231.908 L 564.463,232.238 L 562.803,232.678 L 561.166,233.136 L 559.551,233.612 L 558.006,234.18 L 556.53,234.766 L 555.1,235.407 L 553.717,236.049 L 552.356,236.8 L 551.134,237.551 L 549.911,238.339 L 548.781,239.181 L 547.744,240.024 L 546.752,240.922 L 545.875,241.856 L 545.068,242.772 L 544.307,243.761 L 543.638,244.732 L 543.085,245.758 L 542.624,246.766 L 542.209,247.81 L 541.932,248.855 L 541.701,249.899 L 541.609,250.925 L 541.563,252.024 L 541.678,253.068 L 541.817,254.112 L 542.047,255.157"/>
    <path style="fill: #ffe9aa" d="M 570.898 289.214 L 533.86,288.665 L 533.86,289.599 L 533.929,290.533 L 534.114,291.504 L 534.414,292.439 L 534.76,293.373 L 535.198,294.289 L 535.774,295.205 L 536.374,296.103 L 537.135,296.945 L 537.942,297.825 L 538.795,298.668 L 539.81,299.474 L 540.825,300.261 L 541.978,301.031 L 543.154,301.745 L 544.423,302.442 L 545.783,303.101 L 547.167,303.706 L 548.62,304.328 L 550.142,304.86 L 551.71,305.391 L 553.348,305.867 L 555.008,306.289 L 556.668,306.673 L 558.421,307.022 L 560.197,307.315 L 561.996,307.571 L 563.818,307.773 L 565.64,307.938 L 567.485,308.048 L 569.353,308.121 L 571.244,308.121 L 573.066,308.066 L 574.934,308.011 L 576.778,307.883 L 578.6,307.718 L 580.445,307.48 L 582.198,307.223 L 583.997,306.912 L 585.68,306.545 L 587.387,306.124 L 589.047,305.703 L 590.616,305.208 L 592.207,304.695 L 593.66,304.127 L 595.113,303.504 L 570.898,289.214z"/>
    <path style="fill: none; fill-opacity:0; stroke-width: 0.02; stroke: #805d00" d="M 533.906 288.665 L 533.837,289.599 L 533.976,290.533 L 534.114,291.468 L 534.414,292.42 L 534.76,293.355 L 535.221,294.289 L 535.774,295.205 L 536.42,296.084 L 537.135,296.945 L 537.896,297.806 L 538.795,298.649 L 539.741,299.455 L 540.825,300.243 L 541.932,301.013 L 543.131,301.727 L 544.376,302.423 L 545.714,303.083 L 547.098,303.706 L 548.551,304.292 L 550.073,304.841 L 551.641,305.373 L 553.232,305.831 L 554.893,306.252 L 556.622,306.655 L 558.329,307.003 L 560.082,307.278 L 561.88,307.571 L 563.725,307.736 L 565.547,307.938 L 567.369,308.029 L 569.237,308.121 L 571.105,308.121 L 572.95,308.084 L 574.795,308.029 L 576.64,307.901 L 578.462,307.718 L 580.307,307.48 L 582.06,307.241 L 583.858,306.912 L 585.565,306.564 L 587.226,306.179 L 588.886,305.739 L 590.477,305.245 L 592.069,304.732 L 593.568,304.164 L 594.974,303.577"/>
    <path style="fill: #ffe9aa" d="M 688.744 248.36 L 721.331,253.654 L 721.884,252.867 L 722.299,252.079 L 722.691,251.254 L 722.922,250.448 L 723.153,249.642 L 723.199,248.818 L 723.199,247.957 L 723.153,247.132 L 722.968,246.326 L 722.714,245.52 L 722.345,244.696 L 721.907,243.908 L 721.4,243.12 L 720.8,242.314 L 720.108,241.581 L 719.324,240.83 L 718.448,240.116 L 717.549,239.383 L 716.557,238.742 L 715.496,238.064 L 714.366,237.423 L 713.121,236.836 L 711.875,236.268 L 710.515,235.719 L 709.154,235.224 L 707.724,234.766 L 706.248,234.308 L 704.703,233.923 L 703.135,233.539 L 701.52,233.227 L 699.86,232.934 L 698.223,232.696 L 696.493,232.476 L 694.786,232.33 L 693.057,232.201 L 691.304,232.128 L 689.574,232.055 L 687.845,232.091 L 686.092,232.128 L 684.339,232.22 L 682.633,232.348 L 680.903,232.494 L 679.197,232.696 L 677.513,232.952 L 688.744,248.36z"/>
    <path style="fill: none; fill-opacity:0; stroke-width: 0.02; stroke: #805d00" d="M 718.333 256.641 L 721.308,253.691 L 721.861,252.885 L 722.299,252.116 L 722.645,251.291 L 722.922,250.467 L 723.106,249.661 L 723.176,248.855 L 723.199,248.012 L 723.129,247.169 L 722.968,246.345 L 722.714,245.539 L 722.345,244.732 L 721.907,243.926 L 721.423,243.139 L 720.823,242.351 L 720.108,241.618 L 719.324,240.849 L 718.517,240.134 L 717.572,239.438 L 716.58,238.76 L 715.519,238.082 L 714.389,237.478 L 713.19,236.891 L 711.921,236.287 L 710.607,235.755 L 709.2,235.224 L 707.77,234.766 L 706.294,234.327 L 704.749,233.942 L 703.181,233.575 L 701.59,233.246 L 699.952,232.934 L 698.269,232.696 L 696.608,232.476 L 694.902,232.33 L 693.172,232.22 L 691.419,232.128 L 689.667,232.055 L 687.891,232.055 L 686.161,232.128 L 684.409,232.22 L 682.679,232.33 L 680.972,232.476 L 679.289,232.696 L 677.605,232.934"/>
    <path style="fill: #ffe9aa" d="M 693.38 269.905 L 730.071,276.592 L 730.809,275.73 L 731.409,274.851 L 731.962,273.935 L 732.4,273.019 L 732.7,272.103 L 732.908,271.187 L 732.977,270.234 L 732.977,269.318 L 732.839,268.384 L 732.631,267.431 L 732.262,266.515 L 731.824,265.636 L 731.247,264.72 L 730.625,263.841 L 729.841,262.943 L 728.964,262.118 L 728.019,261.312 L 726.935,260.488 L 725.782,259.718 L 693.38,269.905z"/>
    <path style="fill: none; fill-opacity:0; stroke-width: 0.02; stroke: #805d00" d="M 725.413 279.633 L 730.025,276.646 L 730.717,275.767 L 731.409,274.851 L 731.939,273.953 L 732.377,273.019 L 732.677,272.103 L 732.908,271.187 L 733,270.234 L 732.977,269.318 L 732.839,268.347 L 732.585,267.431 L 732.262,266.497 L 731.824,265.581 L 731.247,264.683 L 730.602,263.804 L 729.794,262.925 L 728.941,262.082 L 727.926,261.239 L 726.889,260.433 L 725.712,259.645 L 718.333,256.641"/>
    <path style="fill: #ffe9aa" d="M 691.834 287.584 L 680.257,313.031 L 681.964,313.434 L 683.694,313.782 L 685.423,314.093 L 687.222,314.313 L 688.975,314.46 L 690.727,314.533 L 692.549,314.551 L 694.325,314.46 L 696.078,314.35 L 697.854,314.13 L 699.583,313.873 L 701.313,313.544 L 703.019,313.122 L 704.703,312.646 L 706.317,312.115 L 707.932,311.51 L 709.5,310.869 L 711.022,310.118 L 712.498,309.33 L 713.905,308.506 L 715.242,307.608 L 716.534,306.673 L 717.779,305.666 L 718.955,304.622 L 720.016,303.559 L 721.031,302.423 L 721.999,301.269 L 722.853,300.042 L 723.614,298.832 L 724.329,297.55 L 724.928,296.268 L 725.482,294.967 L 725.92,293.629 L 726.289,292.274 L 726.52,290.936 L 726.727,289.562 L 726.773,288.188 L 726.773,286.814 L 726.681,285.459 L 726.497,284.085 L 726.22,282.729 L 725.874,281.373 L 725.413,280.054 L 691.834,287.584z"/>
    <path style="fill: none; fill-opacity:0; stroke-width: 0.02; stroke: #805d00" d="M 680.35 313.067 L 682.079,313.452 L 683.786,313.837 L 685.539,314.112 L 687.291,314.331 L 689.09,314.46 L 690.843,314.551 L 692.619,314.57 L 694.394,314.46 L 696.193,314.35 L 697.946,314.13 L 699.676,313.873 L 701.405,313.525 L 703.112,313.086 L 704.772,312.628 L 706.433,312.078 L 708.024,311.492 L 709.569,310.814 L 711.068,310.118 L 712.544,309.312 L 713.951,308.469 L 715.288,307.571 L 716.58,306.637 L 717.825,305.648 L 718.978,304.603 L 720.085,303.486 L 721.054,302.387 L 722.023,301.177 L 722.876,300.005 L 723.637,298.777 L 724.329,297.513 L 724.951,296.213 L 725.505,294.875 L 725.92,293.574 L 726.289,292.237 L 726.566,290.881 L 726.727,289.507 L 726.773,288.133 L 726.773,286.759 L 726.658,285.385 L 726.497,284.011 L 726.197,282.637 L 725.805,281.318 L 725.413,279.999"/>
    <path style="fill: #ffe9aa" d="M 545.161 273.111 L 543.408,255.853 L 542.116,255.944 L 540.894,256.054 L 539.603,256.238 L 538.357,256.439 L 537.135,256.732 L 535.936,257.007 L 534.76,257.355 L 533.607,257.758 L 532.453,258.161 L 531.37,258.619 L 530.309,259.151 L 529.294,259.7 L 528.302,260.268 L 527.403,260.873 L 526.503,261.514 L 525.673,262.155 L 524.889,262.851 L 524.174,263.602 L 523.459,264.317 L 522.837,265.105 L 522.306,265.911 L 521.799,266.717 L 521.315,267.523 L 520.946,268.384 L 520.646,269.227 L 520.369,270.106 L 520.161,270.949 L 520.069,271.847 L 520,272.726 L 520,273.587 L 520.069,274.485 L 520.208,275.364 L 520.415,276.225 L 520.646,277.104 L 520.992,277.947 L 521.361,278.772 L 521.822,279.633 L 522.329,280.42 L 522.906,281.208 L 523.528,281.978 L 524.243,282.729 L 524.958,283.425 L 525.765,284.121 L 526.619,284.799 L 527.495,285.459 L 528.441,286.045 L 529.432,286.613 L 530.447,287.126 L 531.531,287.657 L 532.592,288.115 L 533.745,288.536 L 545.161,273.111z"/>
    <path style="fill: none; fill-opacity:0; stroke-width: 0.02; stroke: #805d00" d="M 543.408 255.853 L 542.186,255.944 L 540.917,256.054 L 539.672,256.238 L 538.473,256.439 L 537.25,256.696 L 536.051,256.97 L 534.898,257.319 L 533.768,257.685 L 532.638,258.106 L 531.6,258.564 L 530.516,259.041 L 529.525,259.572 L 528.556,260.103 L 527.633,260.708 L 526.711,261.331 L 525.904,261.972 L 525.097,262.65 L 524.382,263.364 L 523.69,264.079 L 523.09,264.83 L 522.514,265.581 L 521.96,266.369 L 521.499,267.175 L 521.084,267.981 L 520.738,268.842 L 520.484,269.685 L 520.231,270.527 L 520.092,271.389 L 520,272.268 L 520,273.129 L 520,273.99 L 520.138,274.851 L 520.277,275.73 L 520.484,276.555 L 520.784,277.398 L 521.084,278.24 L 521.499,279.065 L 522.006,279.871 L 522.514,280.659 L 523.09,281.446 L 523.736,282.179 L 524.405,282.894 L 525.12,283.627 L 525.904,284.268 L 526.757,284.927 L 527.657,285.55 L 528.579,286.155 L 529.571,286.668 L 530.539,287.199 L 531.6,287.675 L 532.684,288.133 L 533.791,288.573"/>
    <path style="fill: #ffe9aa" d="M 638.584 300.866 L 586.095,302.881 L 586.441,303.889 L 586.88,304.878 L 587.479,305.867 L 588.24,306.82 L 589.047,307.809 L 590.039,308.744 L 591.123,309.66 L 592.345,310.557 L 593.706,311.437 L 595.159,312.298 L 596.681,313.086 L 598.364,313.892 L 600.117,314.661 L 601.985,315.376 L 603.945,316.054 L 605.975,316.695 L 608.143,317.299 L 610.311,317.867 L 612.594,318.362 L 614.923,318.875 L 617.367,319.278 L 619.812,319.681 L 622.28,319.992 L 624.863,320.304 L 627.446,320.542 L 630.052,320.744 L 632.634,320.872 L 635.287,320.963 L 637.962,321 L 640.591,320.982 L 643.266,320.908 L 645.895,320.78 L 648.501,320.652 L 651.084,320.414 L 653.667,320.176 L 656.158,319.846 L 658.648,319.479 L 661.07,319.058 L 663.468,318.6 L 665.774,318.124 L 667.988,317.574 L 670.156,316.988 L 672.255,316.365 L 674.261,315.705 L 676.175,315.009 L 677.951,314.24 L 679.681,313.489 L 681.272,312.664 L 682.794,311.84 L 684.201,310.997 L 685.446,310.118 L 686.599,309.202 L 687.66,308.267 L 688.56,307.315 L 638.584,300.866z"/>
    <path style="fill: none; fill-opacity:0; stroke-width: 0.02; stroke: #805d00" d="M 586.142 302.9 L 586.441,303.907 L 586.903,304.878 L 587.479,305.886 L 588.24,306.875 L 589.094,307.828 L 590.039,308.744 L 591.146,309.66 L 592.345,310.576 L 593.706,311.437 L 595.159,312.298 L 596.681,313.086 L 598.364,313.892 L 600.163,314.661 L 601.985,315.376 L 603.945,316.054 L 605.975,316.695 L 608.143,317.299 L 610.311,317.867 L 612.594,318.362 L 614.923,318.875 L 617.321,319.278 L 619.766,319.681 L 622.257,319.992 L 624.84,320.286 L 627.399,320.542 L 630.005,320.725 L 632.611,320.872 L 635.24,320.963 L 637.893,321 L 640.545,320.982 L 643.174,320.908 L 645.803,320.78 L 648.455,320.652 L 651.038,320.414 L 653.575,320.157 L 656.112,319.846 L 658.579,319.498 L 661.001,319.058 L 663.376,318.618 L 665.659,318.124 L 667.919,317.574 L 670.087,317.006 L 672.163,316.383 L 674.169,315.724 L 676.06,315.028 L 677.905,314.295 L 679.612,313.507 L 681.226,312.719 L 682.748,311.858 L 684.109,311.034 L 685.4,310.118 L 686.553,309.22 L 687.568,308.286 L 688.514,307.351"/>
  </g>
  <text font-size="13.5918" style="fill: #000000;text-anchor:middle;font-family:sans-serif;font-style:normal;font-weight:normal" x="634.3" y="275.852">
    <tspan x="634.3" y="275.852">INTERNET</tspan>
  </text>
  <g>
    <path style="fill: #b7b79d" d="M 147.58 330.225 L 147.58,457.334 L 222.708,457.334 L 222.708,330.225 L 147.58,330.225z"/>
    <path style="fill: none; fill-opacity:0; stroke-width: 0.02; stroke: #494936" d="M 147.58 330.225 L 147.58,457.334 L 222.708,457.334 L 222.708,330.225 L 147.58,330.225"/>
    <path style="fill: #c9c9b6" d="M 147.58 330.225 L 157.76,320 L 232.866,320 L 222.708,330.225 L 147.58,330.225z"/>
    <path style="fill: none; fill-opacity:0; stroke-width: 0.02; stroke: #494936" d="M 147.58 330.225 L 157.76,320 L 232.371,320"/>
    <path style="fill: none; fill-opacity:0; stroke-width: 0.02; stroke: #494936" d="M 232.371 320.517 L 222.708,330.225 L 147.58,330.225"/>
    <path style="fill: #c9c9b6" d="M 152.209 337.619 L 186.526,337.619 L 186.526,354.294 L 152.209,354.294 L 152.209,337.619z"/>
    <path style="fill: none; fill-opacity:0; stroke-width: 0.02; stroke: #626248" d="M 152.209 337.619 L 186.503,337.619 L 186.503,354.272 L 152.209,354.272 L 152.209,337.619"/>
    <path style="fill: none; fill-opacity:0; stroke-width: 0.6; stroke: #ecece7" d="M 156.839 345.979 L 180.908,345.979"/>
    <path style="fill: #7a7a5a" d="M 222.708 457.334 L 232.866,447.086 L 232.866,320 L 222.708,330.225 L 222.708,457.334z"/>
    <path style="fill: none; fill-opacity:0; stroke-width: 0.02; stroke: #494936" d="M 222.708 457.334 L 232.371,447.603"/>
    <path style="fill: none; fill-opacity:0; stroke-width: 0.02; stroke: #494936" d="M 232.371 320.517 L 222.708,330.225 L 222.708,457.334"/>
    <path style="fill: none; fill-opacity:0; stroke-width: 0.6; stroke: #ecece7" d="M 148.524 448.951 L 222.685,448.951"/>
    <path style="fill: none; fill-opacity:0; stroke-width: 0.6; stroke: #000000" d="M 148.524 381.24 L 222.685,381.24"/>
    <path style="fill: none; fill-opacity:0; stroke-width: 0.6; stroke: #494936" d="M 147.58 448.03 L 222.618,448.03"/>
    <path style="fill: none; fill-opacity:0; stroke-width: 0.6; stroke: #000000" d="M 147.58 380.296 L 222.618,380.296"/>
    <path style="fill: none; fill-opacity:0; stroke-width: 0.02; stroke: #ecece7" d="M 152.209 353.395 L 152.209,337.619 L 185.582,337.619"/>
  </g>
  <text font-size="18.0622" style="fill: #000000;text-anchor:middle;font-family:sans-serif;font-style:normal;font-weight:normal" x="185.133" y="474.084">
    <tspan x="185.133" y="474.084">scanc1.kpu.go.id</tspan>
  </text>
  <g>
    <path style="fill: #b7b796" d="M 145.282 167.92 L 200.361,167.92 L 200.361,50.4604 L 145.282,50.4604 L 145.282,167.92z"/>
    <path style="fill: none; fill-opacity:0; stroke-width: 0.02; stroke: #000000" d="M 145.282 167.92 L 200.361,167.92 L 200.361,50.4604 L 145.282,50.4604 L 145.282,167.92"/>
    <path style="fill: none; fill-opacity:0; stroke-width: 0.2; stroke: #494936" d="M 145.282 167.92 L 200.361,167.92 L 200.361,50.4604 L 145.282,50.4604 L 145.282,167.92"/>
    <path style="fill: #c9c9b6" d="M 145.282 50.4607 L 155.805,40.0037 L 208.911,40.0037 L 200.363,50.4607 L 145.282,50.4607z"/>
    <path style="fill: none; fill-opacity:0; stroke-width: 0.02; stroke: #000000" d="M 145.282 50.4607 L 155.805,40.0037 L 208.911,40.0037 L 200.363,50.4607 L 145.282,50.4607"/>
    <path style="fill: none; fill-opacity:0; stroke-width: 0.2; stroke: #494936" d="M 145.282 50.4607 L 155.805,40.0037 L 208.911,40.0037 L 200.363,50.4607 L 145.282,50.4607"/>
    <path style="fill: #7a7a5a" d="M 200.359 167.92 L 208.907,151.636 L 208.907,40 L 200.359,50.4571 L 200.359,167.916 L 200.359,167.92z"/>
    <path style="fill: none; fill-opacity:0; stroke-width: 0.02; stroke: #000000" d="M 200.359 167.92 L 208.907,151.636 L 208.907,40 L 200.359,50.4571 L 200.359,167.916 L 200.359,167.92"/>
    <path style="fill: none; fill-opacity:0; stroke-width: 0.2; stroke: #494936" d="M 200.359 167.92 L 208.907,151.636 L 208.907,40 L 200.359,50.4571 L 200.359,167.916"/>
    <path style="fill: #b7b796" d="M 204.743 173.165 L 200.363,167.92 L 145.282,167.92 L 140,173.165 L 204.743,173.165 L 204.743,173.165z"/>
    <path style="fill: none; fill-opacity:0; stroke-width: 0.02; stroke: #000000" d="M 204.743 173.165 L 200.363,167.92 L 145.282,167.92 L 140,173.165 L 204.743,173.165 L 204.743,173.165"/>
    <path style="fill: none; fill-opacity:0; stroke-width: 0.2; stroke: #494936" d="M 204.743 173.165 L 200.363,167.92 L 145.282,167.92 L 140,173.165 L 204.743,173.165"/>
    <path style="fill: #b7b796" d="M 204.743 173.165 L 213.262,154.943 L 208.907,151.636 L 200.359,167.92 L 204.74,173.165 L 204.743,173.165z"/>
    <path style="fill: none; fill-opacity:0; stroke-width: 0.02; stroke: #000000" d="M 204.743 173.165 L 213.262,154.943 L 208.907,151.636 L 200.359,167.92 L 204.74,173.165 L 204.743,173.165"/>
    <path style="fill: none; fill-opacity:0; stroke-width: 0.2; stroke: #494936" d="M 204.743 173.165 L 213.262,154.943 L 208.907,151.636 L 200.359,167.92 L 204.74,173.165"/>
    <path style="fill: #b7b796" d="M 200.359 167.92 L 145.278,167.92 L 200.359,167.92z"/>
    <path style="fill: none; fill-opacity:0; stroke-width: 0.2; stroke: #494936" d="M 200.359 167.92 L 145.278,167.92"/>
    <path style="fill: #b7b796" d="M 208.907 151.636 L 200.359,167.92 L 208.907,151.636z"/>
    <path style="fill: none; fill-opacity:0; stroke-width: 0.2; stroke: #494936" d="M 208.907 151.636 L 200.359,167.92"/>
    <path style="fill: #b7b796" d="M 145.308 55.8787 L 200.142,55.8787 L 145.308,55.8787z"/>
    <path style="fill: none; fill-opacity:0; stroke-width: 0.2; stroke: #494936" d="M 145.308 55.8787 L 200.142,55.8787"/>
    <path style="fill: #b7b796" d="M 145.26 56.5445 L 200.094,56.5445 L 145.26,56.5445z"/>
    <path style="fill: none; fill-opacity:0; stroke-width: 0.2; stroke: #494936" d="M 145.26 56.5445 L 200.094,56.5445"/>
    <path style="fill: #b7b796" d="M 188.946 70.6025 L 148.982,70.6025 L 148.982,74.2806 L 156.368,74.2806 L 188.946,70.6025z"/>
    <path style="fill: none; fill-opacity:0; stroke-width: 0.2; stroke: #494936" d="M 188.946 70.6025 L 148.982,70.6025 L 148.982,74.2806 L 156.368,74.2806"/>
    <path style="fill: #b7b796" d="M 188.946 77.4218 L 148.982,77.4218 L 148.982,81.1 L 156.368,81.1 L 188.946,77.4218z"/>
    <path style="fill: none; fill-opacity:0; stroke-width: 0.2; stroke: #494936" d="M 188.946 77.4218 L 148.982,77.4218 L 148.982,81.1 L 156.368,81.1"/>
    <path style="fill: #b7b796" d="M 188.946 84.2448 L 148.982,84.2448 L 148.982,87.923 L 156.368,87.923 L 188.946,84.2448z"/>
    <path style="fill: none; fill-opacity:0; stroke-width: 0.2; stroke: #494936" d="M 188.946 84.2448 L 148.982,84.2448 L 148.982,87.923 L 156.368,87.923"/>
    <path style="fill: #b7b796" d="M 188.946 91.0642 L 148.982,91.0642 L 148.982,94.7424 L 156.368,94.7424 L 188.946,91.0642z"/>
    <path style="fill: none; fill-opacity:0; stroke-width: 0.2; stroke: #494936" d="M 188.946 91.0642 L 148.982,91.0642 L 148.982,94.7424 L 156.368,94.7424"/>
    <path style="fill: #b7b796" d="M 188.946 97.8872 L 148.982,97.8872 L 148.982,101.565 L 156.368,101.565 L 188.946,97.8872z"/>
    <path style="fill: none; fill-opacity:0; stroke-width: 0.2; stroke: #494936" d="M 188.946 97.8872 L 148.982,97.8872 L 148.982,101.565 L 156.368,101.565"/>
    <path style="fill: #b7b796" d="M 188.946 104.707 L 148.982,104.707 L 148.982,108.385 L 156.368,108.385 L 188.946,104.707z"/>
    <path style="fill: none; fill-opacity:0; stroke-width: 0.2; stroke: #494936" d="M 188.946 104.707 L 148.982,104.707 L 148.982,108.385 L 156.368,108.385"/>
    <path style="fill: #b7b796" d="M 188.946 111.526 L 148.982,111.526 L 148.982,115.204 L 156.368,115.204 L 188.946,111.526z"/>
    <path style="fill: none; fill-opacity:0; stroke-width: 0.2; stroke: #494936" d="M 188.946 111.526 L 148.982,111.526 L 148.982,115.204 L 156.368,115.204"/>
    <path style="fill: #b7b796" d="M 188.946 118.349 L 148.982,118.349 L 148.982,122.027 L 156.368,122.027 L 188.946,118.349z"/>
    <path style="fill: none; fill-opacity:0; stroke-width: 0.2; stroke: #494936" d="M 188.946 118.349 L 148.982,118.349 L 148.982,122.027 L 156.368,122.027"/>
    <path style="fill: #b7b796" d="M 188.946 125.168 L 148.982,125.168 L 148.982,128.846 L 156.368,128.846 L 188.946,125.168z"/>
    <path style="fill: none; fill-opacity:0; stroke-width: 0.2; stroke: #494936" d="M 188.946 125.168 L 148.982,125.168 L 148.982,128.846 L 156.368,128.846"/>
    <path style="fill: #b7b796" d="M 188.946 131.991 L 148.982,131.991 L 148.982,135.669 L 156.368,135.669 L 188.946,131.991z"/>
    <path style="fill: none; fill-opacity:0; stroke-width: 0.2; stroke: #494936" d="M 188.946 131.991 L 148.982,131.991 L 148.982,135.669 L 156.368,135.669"/>
    <path style="fill: #b7b796" d="M 188.946 138.811 L 148.982,138.811 L 148.982,142.489 L 156.368,142.489 L 188.946,138.811z"/>
    <path style="fill: none; fill-opacity:0; stroke-width: 0.2; stroke: #494936" d="M 188.946 138.811 L 148.982,138.811 L 148.982,142.489 L 156.368,142.489"/>
    <path style="fill: #b7b796" d="M 188.946 145.63 L 148.982,145.63 L 148.982,149.308 L 156.368,149.308 L 188.946,145.63z"/>
    <path style="fill: none; fill-opacity:0; stroke-width: 0.2; stroke: #494936" d="M 188.946 145.63 L 148.982,145.63 L 148.982,149.308 L 156.368,149.308"/>
    <path style="fill: #b7b796" d="M 188.946 152.453 L 148.982,152.453 L 148.982,156.131 L 156.368,156.131 L 188.946,152.453z"/>
    <path style="fill: none; fill-opacity:0; stroke-width: 0.2; stroke: #494936" d="M 188.946 152.453 L 148.982,152.453 L 148.982,156.131 L 156.368,156.131"/>
    <path style="fill: #b7b796" d="M 188.946 159.272 L 148.982,159.272 L 148.982,162.951 L 156.368,162.951 L 188.946,159.272z"/>
    <path style="fill: none; fill-opacity:0; stroke-width: 0.2; stroke: #494936" d="M 188.946 159.272 L 148.982,159.272 L 148.982,162.951 L 156.368,162.951"/>
  </g>
  <text font-size="18.0622" style="fill: #000000;text-anchor:middle;font-family:sans-serif;font-style:normal;font-weight:normal" x="172.464" y="190.275">
    <tspan x="172.464" y="190.275">pemilu2014.kpu.go.id</tspan>
  </text>
  <g>
    <path style="fill: none; fill-opacity:0; stroke-width: 2; stroke: #000000" d="M 601.995,228.567 A 392.735,392.735 0 0 0 218.47,103.808"/>
    <polygon style="fill: #000000" points="211.175,105.542 219.631,98.2279 218.443,103.69 222.1,107.918 "/>
    <polygon style="fill: none; fill-opacity:0; stroke-width: 2; stroke: #000000" points="211.175,105.542 219.631,98.2279 218.443,103.69 222.1,107.918 "/>
  </g>
  <text font-size="12.8" style="fill: #000000;text-anchor:start;font-family:sans-serif;font-style:normal;font-weight:normal" x="447" y="167">
    <tspan x="447" y="167"></tspan>
  </text>
  <text font-size="12.8" style="fill: #000000;text-anchor:start;font-family:sans-serif;font-style:normal;font-weight:normal" x="400" y="100">
    <tspan x="400" y="100">Minta data C1</tspan>
  </text>
  <g>
    <path style="fill: none; fill-opacity:0; stroke-width: 2; stroke: #000000" d="M 208.981,127.056 A 1748.25,1748.25 0 0 0 532.26,247.493"/>
    <polygon style="fill: #000000" points="539.516,249.391 528.585,251.738 532.253,247.52 531.08,242.054 "/>
    <polygon style="fill: none; fill-opacity:0; stroke-width: 2; stroke: #000000" points="539.516,249.391 528.585,251.738 532.253,247.52 531.08,242.054 "/>
  </g>
  <text font-size="12.8" style="fill: #000000;text-anchor:start;font-family:sans-serif;font-style:normal;font-weight:normal" x="260" y="240">
    <tspan x="260" y="240">Kembalikan daftar URL JPEG C1</tspan>
  </text>
  <text font-size="12.8" style="fill: #000000;text-anchor:start;font-family:sans-serif;font-style:normal;font-weight:normal" x="337" y="300">
    <tspan x="337" y="300"></tspan>
  </text>
  <text font-size="12.8" style="fill: #000000;text-anchor:start;font-family:sans-serif;font-style:normal;font-weight:normal" x="420" y="286">
    <tspan x="420" y="286"></tspan>
  </text>
  <text font-size="12.8" style="fill: #000000;text-anchor:start;font-family:sans-serif;font-style:normal;font-weight:normal" x="300" y="300">
    <tspan x="300" y="300">Minta berkas JPEG C1</tspan>
  </text>
  <g>
    <path style="fill: none; fill-opacity:0; stroke-width: 2; stroke: #000000" d="M 232.863,389.191 A 775.707,775.707 0 0 0 556.807,312.224"/>
    <polygon style="fill: #000000" points="563.546,308.935 556.825,317.869 556.833,312.279 552.366,308.918 "/>
    <polygon style="fill: none; fill-opacity:0; stroke-width: 2; stroke: #000000" points="563.546,308.935 556.825,317.869 556.833,312.279 552.366,308.918 "/>
  </g>
  <text font-size="12.8" style="fill: #000000;text-anchor:start;font-family:sans-serif;font-style:normal;font-weight:normal" x="320" y="400">
    <tspan x="320" y="400">Kembalikanberkas JPEG C1</tspan>
  </text>
  <g>
    <path style="fill: none; fill-opacity:0; stroke-width: 2; stroke: #000000" d="M 526.572,284.8 A 1328.94,1328.94 0 0 0 241.872,366.211"/>
    <polygon style="fill: #000000" points="234.944,369.081 242.228,360.6 241.859,366.178 246.099,369.82 "/>
    <polygon style="fill: none; fill-opacity:0; stroke-width: 2; stroke: #000000" points="234.944,369.081 242.228,360.6 241.859,366.178 246.099,369.82 "/>
  </g>
</svg>
