<?xml version="1.0" standalone="no"?>
<!DOCTYPE svg PUBLIC "-//W3C//DTD SVG 20010904//EN"
 "http://www.w3.org/TR/2001/REC-SVG-20010904/DTD/svg10.dtd">
<svg version="1.0" xmlns="http://www.w3.org/2000/svg"
 width="92.000000pt" height="92.000000pt" viewBox="0 0 92.000000 92.000000"
 preserveAspectRatio="xMidYMid meet">
<metadata>
Created by potrace 1.11, written by Peter Selinger 2001-2013
</metadata>
<g transform="translate(0.000000,92.000000) scale(0.100000,-0.100000)"
fill="#000000" stroke="none">
<path d="M326 830 c-56 -6 -83 -13 -96 -26 -20 -21 -64 -154 -75 -226 -9 -60
11 -242 37 -336 11 -41 17 -76 14 -79 -10 -11 85 -73 112 -73 15 0 43 -5 62
-11 51 -16 247 -11 282 7 15 8 27 18 25 22 -1 4 2 7 7 7 39 0 93 341 76 478
-10 78 -47 202 -65 217 -15 13 -171 30 -250 28 -27 0 -85 -4 -129 -8z m249
-78 c46 -5 48 -6 20 -13 l-30 -7 32 -1 c40 -1 80 -16 101 -38 16 -16 16 -16 0
-10 -10 3 -18 3 -18 -1 0 -4 -24 -6 -53 -5 -85 2 -81 1 -67 18 10 12 10 15 -3
15 -23 0 -29 -16 -21 -53 4 -17 9 -26 11 -19 3 6 15 12 27 12 12 0 27 5 34 12
15 15 15 3 1 -24 -10 -18 -9 -20 6 -15 9 4 23 7 31 7 9 0 13 4 10 9 -4 5 4 6
16 3 20 -5 17 -9 -24 -26 -43 -18 -63 -36 -39 -36 5 0 32 -18 60 -40 28 -22
54 -40 58 -39 4 0 9 -4 11 -10 2 -6 -1 -11 -7 -11 -6 0 -9 -24 -9 -57 2 -82
-12 -160 -32 -178 -10 -9 -64 -25 -121 -37 l-103 -20 -104 20 c-58 12 -112 27
-120 35 -20 20 -31 86 -32 184 0 82 0 82 35 110 27 22 49 29 95 33 83 7 81 25
-3 27 -76 2 -127 25 -127 58 0 11 4 16 8 10 15 -20 56 -38 60 -26 2 6 9 8 15
4 6 -4 8 0 4 10 -3 9 -1 18 6 21 7 2 3 5 -8 6 -18 0 -18 2 -3 10 10 6 15 19
13 30 -2 11 0 18 6 15 5 -4 9 -1 9 4 0 7 24 11 58 12 31 0 66 4 77 9 11 5 31
7 45 4 14 -3 48 -9 75 -12z m92 -18 c-3 -3 -12 -4 -19 -1 -8 3 -5 6 6 6 11 1
17 -2 13 -5z m73 -84 c0 -5 -4 -10 -9 -10 -6 0 -13 5 -16 10 -3 6 1 10 9 10 9
0 16 -4 16 -10z m-536 -45 c-4 -8 -8 -15 -10 -15 -2 0 -4 7 -4 15 0 8 4 15 10
15 5 0 7 -7 4 -15z m553 -87 c-3 -8 -6 -5 -6 6 -1 11 2 17 5 13 3 -3 4 -12 1
-19z m-302 -428 c-3 -5 -10 -10 -16 -10 -5 0 -9 5 -9 10 0 6 7 10 16 10 8 0
12 -4 9 -10z"/>
<path d="M425 678 c-2 -7 -6 -26 -8 -43 -5 -27 -4 -28 9 -10 8 10 14 29 14 42
0 25 -8 31 -15 11z"/>
<path d="M460 592 c0 -4 14 -9 30 -10 17 -1 30 2 30 8 0 5 -13 10 -30 10 -16
0 -30 -4 -30 -8z"/>
<path d="M540 590 c0 -5 7 -10 16 -10 8 0 12 5 9 10 -3 6 -10 10 -16 10 -5 0
-9 -4 -9 -10z"/>
<path d="M536 508 c-3 -12 -4 -36 -2 -53 2 -16 4 -50 6 -75 2 -39 3 -41 9 -16
6 30 14 36 69 56 44 17 41 33 -5 26 -44 -7 -66 4 -61 30 4 21 46 27 85 13 21
-8 22 -7 11 11 -7 11 -22 19 -33 18 -11 0 -32 3 -47 7 -23 6 -28 4 -32 -17z"/>
<path d="M426 449 c-9 -44 -8 -81 2 -75 9 5 16 106 8 106 -2 0 -6 -14 -10 -31z"/>
</g>
</svg>
